<svg width="1886" height="205" viewBox="0 0 1886 205" fill="none" xmlns="http://www.w3.org/2000/svg">
<rect width="1886" height="205" fill="#B5BC89"/>
<circle cx="1019.5" cy="155.5" r="17.5" fill="#0A2628"/>
<circle cx="972.5" cy="155.5" r="17.5" fill="#0A2628"/>
<circle cx="925.5" cy="155.5" r="17.5" fill="#0A2628"/>
<circle cx="878.5" cy="155.5" r="17.5" fill="#0A2628"/>
<rect width="311" height="67" transform="translate(793 33)" fill="#0A2628"/>
<path d="M850.742 79.9475H856.804L858.85 74.912H870.9L872.945 79.9475H879.231L868.111 54.0295H862.048L850.742 79.9475ZM860.784 70.2098L864.912 60.1388L869.003 70.2098H860.784Z" fill="#B5BC89"/>
<path d="M881.938 79.9475H898.972V74.838H887.814V54.0295H881.938V79.9475Z" fill="#B5BC89"/>
<path d="M900.599 66.9515C900.599 74.4677 906.475 80.2067 914.248 80.2067C918.042 80.2067 922.021 78.3924 924.774 75.5785L921.315 71.8389C919.455 73.6902 916.889 74.875 914.546 74.875C910.083 74.875 906.624 71.3946 906.624 66.8775C906.624 62.3603 910.083 58.9169 914.546 58.9169C916.963 58.9169 919.53 60.2499 921.315 62.2863L924.736 58.1394C922.17 55.5106 918.228 53.8444 914.472 53.8444C906.587 53.8444 900.599 59.4723 900.599 66.9515Z" fill="#B5BC89"/>
<path d="M928.282 79.9475H934.158V69.7284H945.948V79.9475H951.824V54.0295H945.948V64.841H934.158V54.0295H928.282V79.9475Z" fill="#B5BC89"/>
<path d="M957.556 79.9475H977.788V75.0971H963.432V69.3582H976.003V64.5078H963.432V58.8799H977.379V54.0295H957.556V79.9475Z" fill="#B5BC89"/>
<path d="M982.399 79.9475H988.275V72.5424H994.263L998.391 79.9475H1005.05L999.507 71.3946C1002.67 69.9136 1004.38 67.0256 1004.38 63.0268C1004.38 57.2878 1000.51 54.0295 993.705 54.0295H982.399V79.9475ZM988.275 67.655V58.8799H993.705C996.941 58.8799 998.8 60.3239 998.8 63.2119C998.8 66.174 996.941 67.655 993.705 67.655H988.275Z" fill="#B5BC89"/>
<path d="M1009.31 79.9475H1015.19V54.0295H1009.31V79.9475Z" fill="#B5BC89"/>
<path d="M1020.97 79.9475H1026.59V63.323L1039.19 79.9475H1044.55V54.0295H1038.97V70.6911L1026.33 54.0295H1020.97V79.9475Z" fill="#B5BC89"/>
<path d="M1048.42 66.9885C1048.42 74.5047 1054.41 80.2067 1062.29 80.2067C1065.9 80.2067 1070.1 78.8367 1072.86 76.8374V66.8775H1067.76V73.6902C1066.09 74.5418 1064.23 75.0971 1062.67 75.0971C1058.05 75.0971 1054.45 71.5797 1054.45 66.9885C1054.45 62.4344 1058.02 58.9169 1062.63 58.9169C1065.16 58.9169 1067.84 60.0277 1069.77 61.8049L1073.08 57.621C1070.44 55.3254 1066.5 53.8444 1062.63 53.8444C1054.52 53.8444 1048.42 59.5093 1048.42 66.9885Z" fill="#B5BC89"/>
<path d="M1075.02 79.9475H1081.08L1083.13 74.912H1095.18L1097.22 79.9475H1103.51L1092.39 54.0295H1086.32L1075.02 79.9475ZM1085.06 70.2098L1089.19 60.1388L1093.28 70.2098H1085.06Z" fill="#B5BC89"/>
<g clip-path="url(#clip0_0_127)">
<path d="M818.148 95.2356C817.999 95.0867 818.148 94.7889 817.999 94.64C817.999 94.7889 817.85 94.9378 817.85 95.0867C817.85 95.2356 817.85 95.3845 817.85 95.5334C817.85 95.8311 817.85 95.8311 817.553 95.8311C817.404 95.8311 817.255 95.8311 817.255 95.8311C816.957 95.8311 816.66 95.8311 816.362 95.98C816.065 95.98 815.767 96.1289 815.618 96.1289C815.321 96.1289 815.023 96.1289 814.725 96.1289C814.279 96.1289 813.981 96.1289 813.535 96.1289C812.94 96.1289 812.344 96.1289 811.749 96.1289C811.749 96.1289 811.749 96.1289 811.749 96.2778C811.749 96.2778 811.898 96.4267 811.749 96.4267C811.749 96.4267 811.6 96.4267 811.6 96.2778C811.452 96.2778 811.6 96.1289 811.6 96.1289C811.154 96.1289 810.559 96.1289 810.112 96.1289C809.666 96.1289 809.22 96.1289 808.922 96.1289C808.624 96.1289 808.327 96.1289 808.029 96.1289H807.88C807.732 96.2778 807.583 96.2778 807.434 96.2778C806.541 96.2778 805.648 96.2778 804.904 96.2778C804.309 96.2778 803.863 96.2778 803.267 96.2778C802.97 96.2778 802.672 96.2778 802.523 96.2778H802.375C802.077 96.1289 801.779 96.1289 801.631 96.4267C801.631 96.4267 801.482 96.5756 801.482 96.4267C801.184 96.4267 800.887 96.4267 800.589 96.4267C800.44 96.4267 800.143 96.4267 799.994 96.4267C799.994 96.4267 799.845 96.4267 799.845 96.2778C799.696 96.1289 799.399 96.1289 799.101 96.1289C799.101 96.2778 799.25 96.2778 799.25 96.2778C799.25 96.4267 799.101 96.2778 798.952 96.2778C798.059 96.2778 797.018 96.2778 796.125 96.2778C795.827 96.2778 795.53 96.2778 795.083 96.2778C794.637 96.2778 794.339 96.2778 793.893 96.1289C793.744 96.1289 793.744 96.1289 793.744 95.98C793.595 95.8311 793.446 95.5334 793.298 95.3845C793.298 95.3845 793.298 95.2356 793.298 95.0867C793.298 92.4067 793.298 89.5778 793.298 86.8978C793.298 84.5156 793.298 81.9845 793.298 79.6023C793.298 79.0067 793.298 78.56 793.298 77.9645C793.298 77.6667 793.298 77.3689 793.298 77.0711C793.298 76.9223 793.298 76.6245 793.298 76.4756C793.298 76.1778 793.298 76.0289 793.298 75.7311V75.5823C793.298 75.1356 793.298 74.6889 793.298 74.2423C793.298 74.0934 793.298 73.7956 793.298 73.6467V73.4978C793.446 73.3489 793.446 73.3489 793.446 73.2V73.0511C793.446 72.7534 793.446 72.3067 793.298 72.0089C793.298 71.86 793.298 71.7111 793.298 71.5623C793.298 71.1156 793.298 70.8178 793.298 70.3711V70.2223C793.595 69.9245 793.744 69.7756 794.042 69.4778C794.19 69.4778 794.19 69.3289 794.339 69.3289C795.083 69.3289 795.827 69.3289 796.571 69.3289C798.952 69.3289 801.184 69.3289 803.565 69.3289C804.458 69.3289 805.351 69.3289 806.244 69.3289C806.839 69.3289 807.434 69.3289 808.029 69.3289C808.476 69.3289 808.922 69.3289 809.368 69.3289C809.815 69.3289 810.112 69.3289 810.559 69.3289C811.154 69.3289 811.749 69.3289 812.344 69.3289C813.237 69.3289 814.13 69.3289 815.172 69.3289C815.469 69.3289 815.469 69.3289 815.469 69.6267C815.469 69.9245 815.469 70.2223 815.321 70.52C815.321 70.8178 815.172 71.2645 815.172 71.5623C815.172 71.86 815.023 72.3067 815.023 72.6045C814.874 73.0511 814.874 73.3489 814.725 73.7956C814.577 74.3911 814.428 74.9867 814.279 75.5823C814.13 76.4756 813.833 77.22 813.535 77.9645C813.237 78.8578 812.791 79.6023 812.196 80.3467C811.898 80.7934 811.452 81.3889 811.154 81.8356C810.559 82.58 809.964 83.1756 809.22 83.92C808.922 84.2178 808.476 84.6645 808.178 84.9622C807.88 85.26 807.434 85.7067 807.136 86.0045C806.839 86.3023 806.541 86.6 806.095 86.8978C805.5 87.3445 805.053 87.94 804.458 88.5356C804.309 88.6845 804.16 88.6845 804.16 88.5356C804.011 88.3867 803.863 88.3867 803.714 88.5356C803.416 88.8334 803.119 89.28 802.97 89.5778C802.523 90.1734 802.226 90.9178 801.928 91.5134C801.631 91.96 801.482 92.5556 801.482 93.0022C801.482 93.4489 801.482 94.0445 801.631 94.4911C801.779 94.7889 801.928 94.9378 802.226 95.2356C802.375 95.2356 802.375 95.2356 802.523 95.0867C802.821 94.64 802.97 94.1934 803.267 93.8956C803.714 93.0023 804.16 92.1089 804.756 91.2156C804.458 91.0667 804.904 90.62 805.202 90.1734C805.5 89.7267 805.946 89.4289 806.244 88.9822C806.69 88.5356 807.136 88.0889 807.583 87.6423C807.88 87.1956 808.327 86.8978 808.773 86.6C809.517 85.8556 810.41 85.26 811.303 84.6645C811.749 84.3667 812.344 83.92 812.791 83.6223C812.94 83.6223 812.94 83.6223 812.94 83.7711C813.089 84.3667 813.089 84.9622 812.94 85.5578C812.791 86.4511 812.493 87.3445 812.344 88.2378C812.196 88.8334 812.047 89.4289 811.898 90.0245C811.898 90.1734 811.898 90.3223 811.898 90.62C811.898 91.0667 811.749 91.3645 811.6 91.6623C811.452 91.8111 811.452 91.96 811.303 92.1089C811.154 92.4067 811.303 92.5556 811.452 92.7045C811.749 93.0022 812.047 93.3 812.344 93.4489C813.089 93.8956 813.684 94.3422 814.428 94.7889C814.874 94.9378 815.321 95.2356 815.767 95.2356C816.213 95.3845 816.66 95.3845 817.106 95.2356C817.106 95.2356 817.255 95.2356 817.255 95.0867C817.255 94.9378 817.106 94.9378 817.106 94.7889C816.809 94.4911 816.362 94.1934 815.916 94.0445C815.469 93.7467 815.023 93.4489 814.725 93.1511C814.428 92.8534 814.13 92.4067 813.981 91.96C813.833 91.6622 813.833 91.5134 813.833 91.2156C813.833 90.1734 813.981 89.28 814.279 88.3867C814.428 87.6423 814.725 86.7489 815.023 86.0045C815.321 85.4089 815.618 84.8134 815.916 84.2178C816.511 83.0267 816.957 81.9845 817.553 80.7934C817.701 80.4956 817.85 80.3467 817.85 80.0489L817.999 79.9V80.0489C817.999 81.5378 817.999 83.1756 817.999 84.6645C817.999 86.1534 817.999 87.6423 817.999 89.1311C817.999 89.5778 817.999 90.1734 817.999 90.62C817.999 90.7689 817.999 91.0667 817.999 91.2156C817.999 91.5134 817.999 91.8111 817.999 91.96C817.999 92.5556 817.999 93.1511 817.999 93.7467C818.148 94.4911 818.297 94.7889 818.148 95.2356ZM793.595 93.1511C793.446 92.8534 793.446 93.0023 793.595 93.1511C793.446 93.0023 793.298 93.1511 793.298 93.1511C793.298 93.1511 793.298 93.1511 793.595 93.1511C793.446 93.1511 793.446 93.1511 793.595 93.1511Z" fill="#B5BC89"/>
<path d="M830.35 65.9045C831.243 65.9045 831.838 65.9045 832.582 65.9045H832.731C832.582 65.9045 832.582 65.9045 832.433 65.9045C832.135 65.9045 831.689 65.9045 831.391 65.9045C830.796 65.9045 830.35 65.9045 829.755 65.9045C829.457 65.9045 829.159 65.9045 828.713 65.9045C828.564 65.9045 828.415 65.9045 828.267 65.7556C828.267 65.6067 828.118 65.6067 827.969 65.6067C827.374 65.6067 826.927 65.6067 826.332 65.6067C826.481 65.6067 826.778 65.6067 826.927 65.7556C826.481 66.0533 824.993 66.0533 824.844 65.7556C824.993 65.7556 825.142 65.7556 825.29 65.6067C824.993 65.4578 824.398 65.4578 824.249 65.6067L824.398 65.7556C824.546 65.9045 824.398 65.9045 824.398 65.9045C824.1 65.9045 823.654 65.9045 823.356 65.9045C823.207 65.9045 823.207 65.7556 823.207 65.7556C823.207 65.6067 823.207 65.3089 823.207 65.16C823.207 64.8622 823.356 64.5645 823.356 64.2667C823.356 63.9689 823.505 63.6711 823.505 63.3733C823.505 63.0756 823.505 62.7778 823.654 62.48C823.654 62.1822 823.802 61.7356 823.802 61.4378C823.802 61.2889 823.802 61.14 823.802 60.9911C823.802 60.6933 823.802 60.3956 823.802 60.0978C823.802 59.2045 823.802 58.1622 823.802 57.2689C823.802 56.8222 823.802 56.3756 823.802 55.9289C823.802 55.4822 823.802 55.0356 823.802 54.5889C823.802 53.9933 823.951 53.3978 824.249 52.8022C824.546 52.0578 824.993 51.4622 825.29 50.8667C825.737 50.1222 826.034 49.3778 826.481 48.6333C826.927 47.8889 827.225 47.1445 827.522 46.2511C827.969 45.3578 828.267 44.4645 828.713 43.5711C829.011 42.8267 829.308 42.0822 829.457 41.3378C829.606 40.8911 829.755 40.4445 829.755 39.9978C829.606 39.9978 829.606 40.1467 829.457 40.2956C829.308 41.04 829.011 41.7845 828.564 42.38C828.415 42.6778 827.969 42.6778 827.671 42.6778C827.671 42.6778 827.522 42.6778 827.374 42.6778C827.374 42.6778 827.225 42.6778 827.225 42.8267V42.9756C827.225 43.8689 827.076 44.6133 826.778 45.3578C826.63 45.8045 826.332 46.2511 826.183 46.8467C825.737 47.74 825.29 48.4845 824.695 49.3778C824.398 49.8245 824.1 50.1222 823.802 50.5689C823.654 50.7178 823.505 51.0156 823.207 51.1645C822.761 51.6111 822.166 52.0578 821.273 52.3556C821.273 52.3556 821.124 52.3556 820.975 52.3556C820.975 52.2067 820.975 52.2067 820.975 52.0578C820.975 48.4845 820.975 44.9111 820.975 41.1889C820.975 40.8911 820.975 40.5933 820.975 40.2956C820.975 39.9978 820.975 39.7 821.273 39.5511C821.422 39.4022 821.57 39.2533 821.719 39.1045C821.57 38.9556 821.719 38.9556 821.868 38.9556C822.761 38.9556 823.654 38.9556 824.546 38.9556C826.481 38.9556 828.415 38.9556 830.35 38.9556C832.731 38.9556 835.26 38.9556 837.641 38.9556C838.98 38.9556 840.32 38.9556 841.659 38.9556C841.808 38.9556 842.105 38.9556 842.254 39.2533C842.403 39.4022 842.7 39.7 842.849 39.8489C842.998 39.9978 842.998 39.9978 842.7 40.1467C842.552 40.1467 842.552 40.1467 842.552 40.2956C842.552 40.7422 842.552 41.04 842.552 41.4867C842.552 41.9333 842.552 42.38 842.552 42.8267C842.552 43.1245 842.403 43.5711 842.403 43.8689C842.403 44.0178 842.403 44.3156 842.403 44.4645C842.403 45.5067 842.403 46.5489 842.403 47.74C842.403 50.5689 842.403 53.2489 842.403 56.0778C842.403 56.9711 842.403 57.8645 842.403 58.7578C842.403 59.2045 842.552 59.6511 842.552 60.0978C842.552 60.2467 842.552 60.5445 842.552 60.6933C842.403 61.14 842.403 61.5867 842.403 62.0333C842.403 62.48 842.403 63.0756 842.403 63.5222C842.403 63.82 842.403 64.2667 842.254 64.5645C842.254 64.5645 842.254 64.7133 842.254 64.5645C842.105 64.5645 842.105 64.5645 842.105 64.7133C842.105 65.0111 842.105 65.3089 842.105 65.6067C842.105 65.7556 842.105 65.7556 841.956 65.7556C841.808 65.7556 841.51 65.7556 841.361 65.7556C841.064 65.7556 840.915 65.7556 840.617 65.7556C840.022 65.7556 839.576 65.7556 838.98 65.7556C837.939 65.7556 836.748 65.7556 835.707 65.7556C834.814 65.7556 834.07 65.7556 833.177 65.7556C832.879 65.7556 832.433 65.7556 832.135 65.7556C831.689 65.7556 831.391 65.7556 830.945 65.7556C830.796 65.7556 830.647 65.7556 830.35 65.9045Z" fill="#B5BC89"/>
<path d="M840.022 92.2578C840.022 92.5555 840.022 92.8533 840.022 93.1511C840.022 93.4489 840.022 93.4489 839.724 93.4489C839.278 93.4489 838.98 93.4489 838.534 93.4489C837.79 93.4489 837.195 93.4489 836.451 93.4489C836.004 93.4489 835.409 93.4489 834.963 93.4489C834.814 93.4489 834.665 93.4489 834.516 93.5978C834.367 93.7467 834.219 93.7467 834.219 93.5978C834.219 93.5978 834.219 93.4489 834.367 93.3C834.07 93.3 833.772 93.3 833.623 93.3C832.135 93.3 830.796 93.3 829.308 93.3C829.011 93.3 828.862 93.3 828.564 93.4489C828.713 93.4489 828.713 93.5978 828.862 93.5978C829.606 93.5978 830.35 93.5978 830.945 93.5978H831.094C831.094 93.7467 831.094 93.7467 830.945 93.7467C830.647 93.7467 830.499 93.8955 830.201 93.8955C829.457 93.8955 828.713 93.8955 827.969 93.8955C827.671 93.8955 827.225 93.8955 826.927 93.8955C826.778 93.8955 826.778 93.8955 826.63 93.7467C826.63 93.5978 826.481 93.5978 826.332 93.5978C825.886 93.5978 825.439 93.5978 824.844 93.5978C824.993 93.5978 825.142 93.5978 825.29 93.7467H825.439C825.142 94.0444 824.993 94.0444 824.844 94.0444C824.398 94.0444 824.1 94.0444 823.654 94.0444C823.505 94.0444 823.505 94.0444 823.356 93.8955C823.356 93.8955 823.505 93.8955 823.654 93.7467C823.505 93.7467 823.356 93.7467 823.356 93.7467C823.207 93.7467 823.207 93.8955 823.207 93.8955C823.207 94.0444 823.207 94.0444 823.058 94.0444C822.761 94.0444 822.463 94.1933 822.017 94.1933C821.719 94.1933 821.273 94.1933 820.975 94.1933C820.678 94.1933 820.529 94.0444 820.38 93.8955C820.231 93.7467 820.082 93.4489 819.933 93.3C819.785 93.3 819.785 93.1511 819.785 93.0022C819.785 87.6422 819.785 82.2822 819.785 77.0711C819.785 76.6244 819.933 76.3267 820.082 76.0289C820.529 74.54 821.124 73.2 821.57 71.7111C821.868 70.52 822.314 69.4778 822.612 68.2867C822.612 68.1378 822.761 67.9889 822.761 67.84C822.761 67.6911 823.058 67.6911 823.207 67.6911C823.951 67.6911 824.546 67.6911 825.29 67.6911C825.737 67.6911 826.034 67.6911 826.481 67.6911C830.945 67.6911 835.409 67.6911 839.873 67.6911C840.022 67.6911 840.171 67.6911 840.32 67.84C840.468 67.9889 840.617 68.1378 840.617 68.2867C840.766 68.5844 840.915 68.8822 840.766 69.18C840.617 69.3289 840.617 69.6267 840.766 69.7755C840.766 69.9244 840.766 70.0733 840.766 70.2222C840.766 70.8178 840.766 71.2644 840.766 71.86C840.766 72.4555 840.766 72.9022 840.766 73.4978C840.766 73.9444 840.766 74.3911 840.766 74.8378C840.766 76.0289 840.766 77.22 840.766 78.4111C840.766 79.7511 840.766 81.0911 840.766 82.4311C840.766 82.8778 840.766 83.3244 840.766 83.7711C840.766 84.2178 840.766 84.6644 840.766 85.1111C840.766 85.4089 840.766 85.5578 840.766 85.8555C840.766 86.4511 840.766 87.0467 840.915 87.4933C840.915 87.7911 840.915 87.94 840.915 88.2378C840.915 88.5355 840.915 88.8333 840.766 89.1311C840.766 89.28 840.766 89.28 840.766 89.4289C840.766 89.8755 840.766 90.4711 840.766 90.9178C840.766 91.3644 840.766 91.6622 840.766 92.1089C840.766 92.2578 840.766 92.2578 840.766 92.4067C840.171 92.4067 840.171 92.4067 840.022 92.2578Z" fill="#B5BC89"/>
<path d="M801.035 44.0178C801.184 44.4644 801.482 44.6133 801.779 44.9111C802.077 45.3578 802.375 45.6555 802.672 46.1022C802.97 46.5489 803.267 46.9955 803.714 47.2933C804.16 47.74 804.458 48.3355 804.904 48.7822C805.351 49.3778 805.648 49.9733 806.244 50.42C806.541 51.1644 807.136 51.4622 807.88 51.6111C808.476 51.76 808.922 51.9089 809.517 52.0578C810.112 52.2067 810.559 52.3555 811.005 52.6533C811.6 52.9511 812.047 53.2489 812.493 53.6955C812.791 53.9933 813.237 54.2911 813.535 54.5889C813.981 55.0355 814.577 55.4822 815.023 55.9289C815.618 56.5244 816.213 57.2689 816.809 58.0133C817.106 58.46 817.404 59.0555 817.553 59.6511C817.553 59.8 817.553 60.0978 817.553 60.3955C817.553 60.9911 817.553 61.4378 817.404 62.0333C817.255 62.48 816.957 62.9267 816.809 63.2244C816.66 63.6711 816.362 63.9689 816.213 64.4155C815.916 64.8622 815.767 65.3089 815.767 65.9044C815.618 66.3511 815.618 66.7978 815.469 67.2444C815.469 67.5422 815.469 67.84 815.321 67.9889C815.321 68.1378 815.321 68.1378 815.172 68.1378C814.428 68.1378 813.833 68.1378 813.089 68.1378C812.047 68.1378 811.005 68.1378 809.964 68.1378C809.22 68.1378 808.476 68.1378 807.732 68.1378H807.88C808.327 68.1378 808.773 68.1378 809.071 68.1378C809.071 68.1378 809.368 68.1378 809.22 68.2867C809.22 68.2867 809.071 68.2867 808.922 68.2867C808.624 68.2867 808.327 68.2867 807.88 68.2867C806.988 68.2867 806.095 68.2867 805.053 68.2867C804.904 68.2867 804.607 68.2867 804.458 68.1378C804.458 68.1378 804.309 67.9889 804.309 68.1378V68.2867C804.309 68.2867 804.309 68.2867 804.309 68.4355C804.16 68.5844 804.16 68.5844 804.011 68.5844C804.011 68.5844 803.863 68.5844 803.863 68.4355C803.863 68.1378 803.565 68.1378 803.416 68.1378C802.672 67.9889 801.779 68.1378 801.035 68.1378C800.887 68.1378 800.738 68.1378 800.44 68.1378C800.589 68.1378 800.738 68.2867 800.738 68.2867C800.738 68.2867 800.887 68.2867 800.887 68.4355C800.887 68.4355 800.887 68.4355 800.738 68.4355C800.589 68.4355 800.589 68.4355 800.44 68.4355C799.547 68.5844 798.803 68.5844 797.911 68.5844C797.613 68.5844 797.464 68.5844 797.315 68.2867L797.167 68.1378C796.869 67.9889 796.869 67.6911 796.869 67.3933C796.869 63.2244 796.869 59.2044 796.869 55.0355C796.869 50.8667 796.869 46.5489 796.869 42.38C796.869 42.0822 796.869 41.7844 797.167 41.6355C797.464 41.6355 797.613 41.4867 797.762 41.3378H797.911C798.506 41.3378 799.25 41.3378 799.845 41.3378C802.97 41.3378 806.244 41.3378 809.368 41.3378C809.666 41.3378 810.112 41.3378 810.41 41.3378C811.303 41.3378 812.196 41.3378 813.089 41.3378C813.833 41.3378 814.725 41.3378 815.469 41.3378C816.362 41.3378 817.255 41.3378 817.999 41.3378C818.148 41.3378 818.297 41.3378 818.297 41.4867C818.445 41.6355 818.743 41.9333 818.892 42.0822C819.041 42.2311 819.041 42.2311 819.041 42.38C819.041 43.5711 819.041 44.7622 819.041 45.9533C819.041 47.5911 819.041 49.2289 819.041 50.8667C819.041 51.1644 819.041 51.4622 818.892 51.76C818.892 51.76 818.892 51.9089 818.743 51.9089C818.743 51.9089 818.594 51.9089 818.594 51.76C818.445 51.6111 818.445 51.4622 818.445 51.3133C818.297 50.8667 818.297 50.2711 818.297 49.8244C818.297 49.2289 818.445 48.7822 818.445 48.1867C818.445 47.5911 818.594 47.1444 818.297 46.5489C818.148 46.2511 817.999 46.1022 817.701 45.9533C817.404 45.8044 817.106 45.6555 816.66 45.5067C815.916 45.3578 815.172 45.5067 814.577 46.2511C814.279 46.6978 813.981 47.2933 813.833 47.8889C813.684 48.4844 813.684 49.08 813.981 49.6755C814.13 49.9733 814.279 50.2711 814.577 50.5689C814.725 50.7178 815.023 50.8667 815.172 51.1644C815.321 51.3133 815.321 51.3133 815.172 51.4622C815.172 51.4622 815.172 51.4622 815.023 51.4622C814.725 51.4622 814.279 51.4622 813.981 51.4622C813.089 51.4622 812.196 51.3133 811.452 51.0155C810.708 50.7178 809.964 50.42 809.22 50.1222C808.476 49.8244 807.583 49.3778 806.69 48.7822C806.095 48.3355 805.5 48.0378 804.904 47.4422C804.309 46.9955 803.714 46.4 803.416 45.6555C803.416 45.5067 803.267 45.3578 803.119 45.2089C803.119 45.06 802.97 45.06 802.97 45.2089C802.672 45.5067 802.672 45.5067 802.375 45.2089C802.077 45.06 801.779 44.6133 801.333 44.3155C801.333 44.1667 801.184 44.1667 801.035 44.0178Z" fill="#B5BC89"/>
<path d="M802.375 68.2867C802.523 68.2867 802.821 68.2867 803.119 68.2867C803.119 68.2867 803.267 68.2867 803.267 68.4356L803.119 68.5844C802.672 68.5844 802.375 68.5844 801.928 68.5844C801.779 68.5844 801.631 68.5844 801.333 68.4356C801.333 68.4356 801.184 68.4356 801.184 68.2867C801.184 68.2867 801.184 68.2867 801.333 68.1378C801.482 67.9889 801.779 67.9889 801.928 67.9889C802.077 68.1378 802.226 68.2867 802.375 68.2867Z" fill="#B5BC89"/>
<path d="M826.481 93.8956C826.481 94.0445 826.481 94.0445 826.481 93.8956C826.332 94.0445 826.183 94.0445 826.034 94.0445C826.034 94.0445 825.886 94.0445 825.886 93.8956C825.886 93.8956 825.886 93.7467 826.034 93.7467C826.183 93.8956 826.332 93.8956 826.481 93.8956Z" fill="#B5BC89"/>
<path d="M827.82 66.2022H827.671C827.522 66.0533 827.522 66.0533 827.671 66.0533C827.82 66.0533 827.82 66.0533 827.969 66.0533L828.118 66.2022C828.118 66.2022 827.969 66.2022 827.82 66.2022Z" fill="#B5BC89"/>
<path d="M812.791 68.2867C812.791 68.4356 812.642 68.4356 812.642 68.4356C812.493 68.4356 812.493 68.4356 812.493 68.2867C812.493 68.1378 812.642 68.1378 812.642 68.1378C812.642 68.1378 812.642 68.2867 812.791 68.2867Z" fill="#B5BC89"/>
</g>
<defs>
<clipPath id="clip0_0_127">
<rect width="49.9981" height="57.62" fill="white" transform="translate(793 38.9556)"/>
</clipPath>
</defs>
</svg>
