<svg width="44" height="44" viewBox="0 0 44 44" fill="none" xmlns="http://www.w3.org/2000/svg">
<g clip-path="url(#clip0_0_125)">
<path fill-rule="evenodd" clip-rule="evenodd" d="M8.16104 21.367C8.89428 21.7705 9.7369 22 10.6334 22C11.5298 22 12.3724 21.7705 13.1057 21.367C14.6922 20.494 15.7667 18.8064 15.7667 16.8667C15.7667 14.0305 13.4695 11.7333 10.6334 11.7333C7.7972 11.7333 5.50003 14.0305 5.50003 16.8667C5.50003 18.8064 6.57451 20.494 8.16104 21.367ZM10.6334 19.36C10.1928 19.36 9.7868 19.2483 9.43381 19.0541C8.65721 18.6267 8.14003 17.8063 8.14003 16.8667C8.14003 15.4885 9.25523 14.3733 10.6334 14.3733C12.0115 14.3733 13.1267 15.4885 13.1267 16.8667C13.1267 17.8063 12.6095 18.6267 11.8329 19.0541C11.4799 19.2483 11.0739 19.36 10.6334 19.36Z" fill="#D9D9D9"/>
<path d="M10.6334 23.6133C9.81906 23.6133 8.84834 23.6954 7.84188 23.8525C6.17508 24.1127 4.29552 24.5968 2.79392 25.3391C2.04407 25.7098 1.32094 26.1775 0.76999 26.7712C0.207549 27.3773 -0.219971 28.1683 -0.219971 29.1238V32.2667H2.42003V29.1238C2.42003 29.0071 2.46272 28.8282 2.70509 28.567C2.95895 28.2935 3.37523 27.9967 3.96378 27.7057C5.13896 27.1248 6.73213 26.6977 8.24908 26.4609C9.14915 26.3204 9.98135 26.2533 10.6334 26.2533C11.2854 26.2533 12.1176 26.3204 13.0176 26.4609C14.5346 26.6977 16.1278 27.1248 17.3029 27.7057C17.8915 27.9967 18.3078 28.2935 18.5616 28.567C18.804 28.8282 18.8467 29.0071 18.8467 29.1238V32.2667H21.4867V29.1238C21.4867 28.1683 21.0592 27.3773 20.4967 26.7712C19.9458 26.1775 19.2227 25.7098 18.4728 25.3391C16.9712 24.5968 15.0916 24.1127 13.4248 23.8525C12.4184 23.6954 11.4477 23.6133 10.6334 23.6133Z" fill="#D9D9D9"/>
<path fill-rule="evenodd" clip-rule="evenodd" d="M30.161 21.367C30.8943 21.7705 31.7369 22 32.6333 22C33.5298 22 34.3724 21.7705 35.1057 21.367C36.6922 20.494 37.7667 18.8064 37.7667 16.8667C37.7667 14.0305 35.4695 11.7333 32.6333 11.7333C29.7972 11.7333 27.5 14.0305 27.5 16.8667C27.5 18.8064 28.5745 20.494 30.161 21.367ZM32.6333 19.36C32.1928 19.36 31.7868 19.2483 31.4338 19.0541C30.6572 18.6267 30.14 17.8063 30.14 16.8667C30.14 15.4885 31.2552 14.3733 32.6333 14.3733C34.0115 14.3733 35.1267 15.4885 35.1267 16.8667C35.1267 17.8063 34.6095 18.6267 33.8329 19.0541C33.4799 19.2483 33.0739 19.36 32.6333 19.36Z" fill="#D9D9D9"/>
<path d="M32.6333 23.8333C31.8326 23.8333 30.8734 23.9141 29.8758 24.0699C28.2215 24.3281 26.3658 24.8075 24.8914 25.5363C24.155 25.9003 23.4574 26.3538 22.9312 26.9208C22.3955 27.4982 22 28.2382 22 29.1238V32.2667H24.2V29.1238C24.2 28.9372 24.2748 28.7073 24.5438 28.4174C24.8224 28.1171 25.2643 27.8061 25.8663 27.5085C27.0686 26.9142 28.6857 26.4823 30.2151 26.2435C31.1241 26.1016 31.9678 26.0333 32.6333 26.0333C33.2989 26.0333 34.1426 26.1016 35.0516 26.2435C36.581 26.4823 38.198 26.9142 39.4004 27.5085C40.0024 27.8061 40.4442 28.1171 40.7229 28.4174C40.9919 28.7073 41.0667 28.9372 41.0667 29.1238V32.2667H43.2667V29.1238C43.2667 28.2382 42.8712 27.4982 42.3354 26.9209C41.8093 26.3538 41.1117 25.9003 40.3753 25.5363C38.9009 24.8075 37.0452 24.3281 35.3909 24.0699C34.3933 23.9141 33.4341 23.8333 32.6333 23.8333Z" fill="#D9D9D9"/>
<g filter="url(#filter0_d_0_125)">
<path d="M5.36664 36.6667V37.1667H5.86664H36.6666H37.1666V36.6667V30.8917C37.1666 28.6373 35.4323 26.9138 33.2305 25.6758C31.0029 24.4232 28.1388 23.5722 25.5345 23.1098C23.9719 22.8323 22.4859 22.6917 21.2666 22.6917C20.0473 22.6917 18.5614 22.8323 16.9988 23.1098C14.3945 23.5722 11.5304 24.4232 9.30275 25.6758C7.10101 26.9138 5.36664 28.6373 5.36664 30.8917V36.6667ZM17.3171 20.7552C18.489 21.4001 19.8356 21.7667 21.2666 21.7667C22.6977 21.7667 24.0443 21.4001 25.2162 20.7552C27.7494 19.3612 29.4666 16.6656 29.4666 13.5667C29.4666 9.03628 25.797 5.36667 21.2666 5.36667C16.7362 5.36667 13.0666 9.03628 13.0666 13.5667C13.0666 16.6656 14.7839 19.3612 17.3171 20.7552Z" stroke="#0A2628" shape-rendering="crispEdges"/>
</g>
<path fill-rule="evenodd" clip-rule="evenodd" d="M16.4785 23.7163C11.4769 24.7083 5.86664 27.1053 5.86664 30.8917V36.6667H36.6666V30.8917C36.6666 27.1053 31.0564 24.7083 26.0548 23.7163C25.8511 23.6759 25.6483 23.6378 25.4471 23.6021C23.9072 23.3286 22.451 23.1917 21.2666 23.1917C20.0823 23.1917 18.6261 23.3286 17.0862 23.6021C16.8849 23.6378 16.6822 23.6759 16.4785 23.7163ZM17.0835 20.0333C17.238 20.1334 17.3963 20.2281 17.5582 20.3172C18.658 20.9224 19.9219 21.2667 21.2666 21.2667C22.6113 21.2667 23.8753 20.9224 24.9751 20.3172C25.137 20.2281 25.2953 20.1334 25.4498 20.0333C27.5667 18.6615 28.9666 16.2783 28.9666 13.5667C28.9666 9.31242 25.5209 5.86667 21.2666 5.86667C17.0124 5.86667 13.5666 9.31242 13.5666 13.5667C13.5666 16.2783 14.9666 18.6615 17.0835 20.0333ZM33.1466 33.1467V30.8917C33.1466 30.8913 33.1467 30.8907 33.1467 30.89C33.1473 30.8713 33.1516 30.7407 32.9094 30.4438C32.6282 30.0992 32.1059 29.6553 31.2603 29.1799C29.5602 28.224 27.1723 27.4835 24.8316 27.0679C23.4513 26.8228 22.2047 26.7117 21.2666 26.7117C20.3286 26.7117 19.0819 26.8228 17.7016 27.0679C15.361 27.4835 12.9731 28.224 11.273 29.1799C10.4274 29.6553 9.90504 30.0992 9.62391 30.4438C9.3817 30.7407 9.38598 30.8713 9.3866 30.89C9.38662 30.8907 9.38664 30.8913 9.38664 30.8917V33.1467H33.1466ZM19.2552 17.2333C19.848 17.5595 20.5299 17.7467 21.2666 17.7467C22.0034 17.7467 22.6852 17.5595 23.2781 17.2333C24.578 16.5179 25.4466 15.1427 25.4466 13.5667C25.4466 11.2565 23.5768 9.38667 21.2666 9.38667C18.9564 9.38667 17.0866 11.2565 17.0866 13.5667C17.0866 15.1427 17.9553 16.5179 19.2552 17.2333Z" fill="#D9D9D9"/>
</g>
<rect x="0.5" y="0.5" width="43" height="43" stroke="#F0F0F0"/>
<defs>
<filter id="filter0_d_0_125" x="0.866638" y="4.86667" width="40.8" height="40.8" filterUnits="userSpaceOnUse" color-interpolation-filters="sRGB">
<feFlood flood-opacity="0" result="BackgroundImageFix"/>
<feColorMatrix in="SourceAlpha" type="matrix" values="0 0 0 0 0 0 0 0 0 0 0 0 0 0 0 0 0 0 127 0" result="hardAlpha"/>
<feOffset dy="4"/>
<feGaussianBlur stdDeviation="2"/>
<feComposite in2="hardAlpha" operator="out"/>
<feColorMatrix type="matrix" values="0 0 0 0 0 0 0 0 0 0 0 0 0 0 0 0 0 0 0.25 0"/>
<feBlend mode="normal" in2="BackgroundImageFix" result="effect1_dropShadow_0_125"/>
<feBlend mode="normal" in="SourceGraphic" in2="effect1_dropShadow_0_125" result="shape"/>
</filter>
<clipPath id="clip0_0_125">
<rect width="44" height="44" fill="white"/>
</clipPath>
</defs>
</svg>
