<svg width="23" height="31" viewBox="0 0 23 31" fill="none" xmlns="http://www.w3.org/2000/svg">
<path d="M0.500001 12.0592L0.500001 12.059C0.498906 9.76797 1.1464 7.52987 2.3581 5.62811C3.56967 3.72657 5.28979 2.24815 7.29801 1.37624C9.30591 0.504476 11.514 0.277035 13.6438 0.721566C15.7738 1.16614 17.7335 2.26366 19.2735 3.87918L19.2744 3.88015C20.2995 4.94975 21.1131 6.2231 21.6672 7.62707C22.2214 9.03107 22.5046 10.5371 22.4999 12.0577V12.0592C22.4999 14.2877 21.7534 16.6011 20.6634 18.7834C19.5753 20.9619 18.1602 22.9795 16.8594 24.6078C15.2192 26.6596 13.4271 28.5717 11.5 30.3266C9.57288 28.5718 7.7808 26.6597 6.14064 24.608C4.83985 22.9796 3.42472 20.962 2.33659 18.7834C1.24658 16.6011 0.500001 14.2877 0.500001 12.0592ZM11.5 6.39359C10.0524 6.39359 8.66924 6.9965 7.6532 8.06142C6.63791 9.12555 6.07141 10.564 6.07141 12.0592C6.07141 13.5545 6.63791 14.993 7.6532 16.0571C8.66924 17.122 10.0524 17.7249 11.5 17.7249C12.9475 17.7249 14.3307 17.122 15.3467 16.0571C16.362 14.993 16.9285 13.5545 16.9285 12.0592C16.9285 10.564 16.362 9.12555 15.3467 8.06142C14.3307 6.9965 12.9475 6.39359 11.5 6.39359Z" fill="#F0F0F0" stroke="black"/>
</svg>
